<svg width="20" height="20" viewBox="0 0 20 20" fill="none" xmlns="http://www.w3.org/2000/svg">
<path d="M12.5 10C12.5 10.663 12.2366 11.2989 11.7678 11.7678C11.2989 12.2366 10.663 12.5 10 12.5C9.33696 12.5 8.70107 12.2366 8.23223 11.7678C7.76339 11.2989 7.5 10.663 7.5 10C7.5 9.33696 7.76339 8.70107 8.23223 8.23223C8.70107 7.76339 9.33696 7.5 10 7.5C10.663 7.5 11.2989 7.76339 11.7678 8.23223C12.2366 8.70107 12.5 9.33696 12.5 10Z" fill="#667085"/>
<path d="M18.245 9.62749C16.4467 6.02999 13.2533 4.16666 10 4.16666C6.74667 4.16666 3.55334 6.02999 1.755 9.62749C1.6972 9.74316 1.66711 9.87069 1.66711 9.99999C1.66711 10.1293 1.6972 10.2568 1.755 10.3725C3.55334 13.97 6.74667 15.8333 10 15.8333C13.2533 15.8333 16.4467 13.97 18.245 10.3725C18.3028 10.2568 18.3329 10.1293 18.3329 9.99999C18.3329 9.87069 18.3028 9.74316 18.245 9.62749ZM10 14.1667C7.52584 14.1667 4.99834 12.8167 3.44167 9.99999C4.99834 7.18332 7.525 5.83332 10 5.83332C12.475 5.83332 15.0017 7.18332 16.5583 9.99999C15.0017 12.8167 12.4742 14.1667 10 14.1667Z" fill="#667085"/>
</svg>
